<mxfile host="Electron" modified="2024-04-11T16:21:39.666Z" agent="Mozilla/5.0 (Windows NT 10.0; Win64; x64) AppleWebKit/537.36 (KHTML, like Gecko) draw.io/24.1.0 Chrome/120.0.6099.109 Electron/28.1.0 Safari/537.36" etag="1SdzXTVjuxvu4uqefbst" version="24.1.0" type="device">
  <diagram id="kgpKYQtTHZ0yAKxKKP6v" name="Page-1">
    <mxGraphModel dx="4947" dy="4611" grid="0" gridSize="10" guides="1" tooltips="1" connect="1" arrows="1" fold="1" page="1" pageScale="1" pageWidth="850" pageHeight="1100" background="none" math="0" shadow="0">
      <root>
        <mxCell id="0" />
        <mxCell id="1" parent="0" />
        <mxCell id="QdUmvHCU_gGnPU_W8vJt-130" style="rounded=0;orthogonalLoop=1;jettySize=auto;html=1;dashed=1;dashPattern=8 8;entryX=0;entryY=1;entryDx=0;entryDy=0;exitX=1;exitY=0.5;exitDx=0;exitDy=0;" edge="1" parent="1" source="QdUmvHCU_gGnPU_W8vJt-25">
          <mxGeometry relative="1" as="geometry">
            <mxPoint x="500" y="1210" as="sourcePoint" />
            <mxPoint x="796.5079632594607" y="793.5324543999013" as="targetPoint" />
          </mxGeometry>
        </mxCell>
        <mxCell id="QdUmvHCU_gGnPU_W8vJt-179" value="&amp;lt;&amp;lt;includes&amp;gt;&amp;gt;" style="edgeLabel;html=1;align=center;verticalAlign=middle;resizable=0;points=[];fontFamily=Helvetica;fontSize=11;fontColor=default;labelBackgroundColor=default;" vertex="1" connectable="0" parent="QdUmvHCU_gGnPU_W8vJt-130">
          <mxGeometry x="-0.1802" y="-2" relative="1" as="geometry">
            <mxPoint as="offset" />
          </mxGeometry>
        </mxCell>
        <mxCell id="QdUmvHCU_gGnPU_W8vJt-132" style="rounded=0;orthogonalLoop=1;jettySize=auto;html=1;dashed=1;dashPattern=8 8;exitDx=0;exitDy=0;exitX=1;exitY=0.5;entryX=0;entryY=1;entryDx=0;entryDy=0;" edge="1" parent="1" source="QdUmvHCU_gGnPU_W8vJt-101">
          <mxGeometry relative="1" as="geometry">
            <mxPoint x="628" y="825" as="sourcePoint" />
            <mxPoint x="796.5079632594607" y="793.5324543999013" as="targetPoint" />
          </mxGeometry>
        </mxCell>
        <mxCell id="QdUmvHCU_gGnPU_W8vJt-177" value="&amp;lt;&amp;lt;includes&amp;gt;&amp;gt;" style="edgeLabel;html=1;align=center;verticalAlign=middle;resizable=0;points=[];fontFamily=Helvetica;fontSize=11;fontColor=default;labelBackgroundColor=default;" vertex="1" connectable="0" parent="QdUmvHCU_gGnPU_W8vJt-132">
          <mxGeometry x="0.1698" y="1" relative="1" as="geometry">
            <mxPoint as="offset" />
          </mxGeometry>
        </mxCell>
        <mxCell id="QdUmvHCU_gGnPU_W8vJt-134" style="rounded=0;orthogonalLoop=1;jettySize=auto;html=1;dashed=1;dashPattern=8 8;exitDx=0;exitDy=0;exitX=1;exitY=0.5;entryX=0;entryY=1;entryDx=0;entryDy=0;" edge="1" parent="1" source="QdUmvHCU_gGnPU_W8vJt-102">
          <mxGeometry relative="1" as="geometry">
            <mxPoint x="237" y="1345" as="sourcePoint" />
            <mxPoint x="796.5079632594607" y="793.5324543999013" as="targetPoint" />
          </mxGeometry>
        </mxCell>
        <mxCell id="QdUmvHCU_gGnPU_W8vJt-178" value="&amp;lt;&amp;lt;includes&amp;gt;&amp;gt;" style="edgeLabel;html=1;align=center;verticalAlign=middle;resizable=0;points=[];fontFamily=Helvetica;fontSize=11;fontColor=default;labelBackgroundColor=default;" vertex="1" connectable="0" parent="QdUmvHCU_gGnPU_W8vJt-134">
          <mxGeometry x="0.0881" relative="1" as="geometry">
            <mxPoint as="offset" />
          </mxGeometry>
        </mxCell>
        <mxCell id="QdUmvHCU_gGnPU_W8vJt-162" value="" style="endArrow=none;html=1;rounded=0;" edge="1" parent="1" target="QdUmvHCU_gGnPU_W8vJt-45">
          <mxGeometry width="50" height="50" relative="1" as="geometry">
            <mxPoint x="-450" y="727.330074825054" as="sourcePoint" />
            <mxPoint x="330" y="990" as="targetPoint" />
          </mxGeometry>
        </mxCell>
        <mxCell id="QdUmvHCU_gGnPU_W8vJt-163" value="" style="endArrow=none;html=1;rounded=0;" edge="1" parent="1" target="QdUmvHCU_gGnPU_W8vJt-27">
          <mxGeometry width="50" height="50" relative="1" as="geometry">
            <mxPoint x="-450" y="731.7838680173254" as="sourcePoint" />
            <mxPoint x="205" y="960" as="targetPoint" />
          </mxGeometry>
        </mxCell>
        <mxCell id="QdUmvHCU_gGnPU_W8vJt-164" value="" style="endArrow=none;html=1;rounded=0;entryX=0;entryY=0.5;entryDx=0;entryDy=0;" edge="1" parent="1" target="QdUmvHCU_gGnPU_W8vJt-26">
          <mxGeometry width="50" height="50" relative="1" as="geometry">
            <mxPoint x="-450" y="719.4427480916029" as="sourcePoint" />
            <mxPoint x="215" y="1005" as="targetPoint" />
          </mxGeometry>
        </mxCell>
        <mxCell id="QdUmvHCU_gGnPU_W8vJt-183" value="" style="endArrow=none;html=1;rounded=0;" edge="1" parent="1" target="QdUmvHCU_gGnPU_W8vJt-23">
          <mxGeometry width="50" height="50" relative="1" as="geometry">
            <mxPoint x="-450" y="724.5108800023472" as="sourcePoint" />
            <mxPoint x="-280" y="1140" as="targetPoint" />
          </mxGeometry>
        </mxCell>
        <mxCell id="QdUmvHCU_gGnPU_W8vJt-185" style="rounded=0;orthogonalLoop=1;jettySize=auto;html=1;dashed=1;dashPattern=8 8;exitX=0.5;exitY=0;exitDx=0;exitDy=0;" edge="1" parent="1" target="QdUmvHCU_gGnPU_W8vJt-23">
          <mxGeometry relative="1" as="geometry">
            <mxPoint x="260" y="1560" as="sourcePoint" />
            <mxPoint x="150" y="1410" as="targetPoint" />
          </mxGeometry>
        </mxCell>
        <mxCell id="QdUmvHCU_gGnPU_W8vJt-186" value="&amp;lt;&amp;lt;includes&amp;gt;&amp;gt;" style="edgeLabel;html=1;align=center;verticalAlign=middle;resizable=0;points=[];" vertex="1" connectable="0" parent="QdUmvHCU_gGnPU_W8vJt-185">
          <mxGeometry x="-0.0452" relative="1" as="geometry">
            <mxPoint as="offset" />
          </mxGeometry>
        </mxCell>
        <mxCell id="QdUmvHCU_gGnPU_W8vJt-187" style="rounded=0;orthogonalLoop=1;jettySize=auto;html=1;dashed=1;dashPattern=8 8;" edge="1" parent="1" target="QdUmvHCU_gGnPU_W8vJt-8">
          <mxGeometry relative="1" as="geometry">
            <mxPoint x="328.6730371095132" y="272.5322170239242" as="sourcePoint" />
            <mxPoint x="285" y="390" as="targetPoint" />
          </mxGeometry>
        </mxCell>
        <mxCell id="QdUmvHCU_gGnPU_W8vJt-188" value="&amp;lt;&amp;lt;includes&amp;gt;&amp;gt;" style="edgeLabel;html=1;align=center;verticalAlign=middle;resizable=0;points=[];" vertex="1" connectable="0" parent="QdUmvHCU_gGnPU_W8vJt-187">
          <mxGeometry x="-0.0452" relative="1" as="geometry">
            <mxPoint as="offset" />
          </mxGeometry>
        </mxCell>
        <mxCell id="QdUmvHCU_gGnPU_W8vJt-190" value="" style="endArrow=none;html=1;rounded=0;" edge="1" parent="1" target="QdUmvHCU_gGnPU_W8vJt-2">
          <mxGeometry width="50" height="50" relative="1" as="geometry">
            <mxPoint x="-330" y="1155.019492429028" as="sourcePoint" />
            <mxPoint x="6" y="1741" as="targetPoint" />
          </mxGeometry>
        </mxCell>
        <mxCell id="QdUmvHCU_gGnPU_W8vJt-191" value="" style="endArrow=none;html=1;rounded=0;" edge="1" parent="1" target="QdUmvHCU_gGnPU_W8vJt-10">
          <mxGeometry width="50" height="50" relative="1" as="geometry">
            <mxPoint x="-330" y="1156.6181734001757" as="sourcePoint" />
            <mxPoint x="777" y="776" as="targetPoint" />
          </mxGeometry>
        </mxCell>
        <mxCell id="QdUmvHCU_gGnPU_W8vJt-192" value="" style="endArrow=none;html=1;rounded=0;" edge="1" parent="1" target="QdUmvHCU_gGnPU_W8vJt-25">
          <mxGeometry width="50" height="50" relative="1" as="geometry">
            <mxPoint x="-330" y="1162.8536812225611" as="sourcePoint" />
            <mxPoint x="815" y="895" as="targetPoint" />
          </mxGeometry>
        </mxCell>
        <mxCell id="QdUmvHCU_gGnPU_W8vJt-193" value="" style="endArrow=none;html=1;rounded=0;" edge="1" parent="1" target="QdUmvHCU_gGnPU_W8vJt-102">
          <mxGeometry width="50" height="50" relative="1" as="geometry">
            <mxPoint x="-330" y="1157.1927495168165" as="sourcePoint" />
            <mxPoint x="124" y="1325" as="targetPoint" />
          </mxGeometry>
        </mxCell>
        <mxCell id="QdUmvHCU_gGnPU_W8vJt-194" value="" style="endArrow=none;html=1;rounded=0;" edge="1" parent="1" target="QdUmvHCU_gGnPU_W8vJt-101">
          <mxGeometry width="50" height="50" relative="1" as="geometry">
            <mxPoint x="-330" y="1154.9982943320092" as="sourcePoint" />
            <mxPoint x="60" y="1627" as="targetPoint" />
          </mxGeometry>
        </mxCell>
        <mxCell id="QdUmvHCU_gGnPU_W8vJt-196" value="" style="endArrow=none;html=1;rounded=0;" edge="1" parent="1" target="QdUmvHCU_gGnPU_W8vJt-32">
          <mxGeometry width="50" height="50" relative="1" as="geometry">
            <mxPoint x="-330" y="1147.048578605607" as="sourcePoint" />
            <mxPoint x="215" y="652" as="targetPoint" />
          </mxGeometry>
        </mxCell>
        <mxCell id="QdUmvHCU_gGnPU_W8vJt-197" value="" style="endArrow=none;html=1;rounded=0;" edge="1" parent="1" target="QdUmvHCU_gGnPU_W8vJt-12">
          <mxGeometry width="50" height="50" relative="1" as="geometry">
            <mxPoint x="-330" y="1144.5122365891439" as="sourcePoint" />
            <mxPoint x="225" y="661" as="targetPoint" />
          </mxGeometry>
        </mxCell>
        <mxCell id="QdUmvHCU_gGnPU_W8vJt-198" value="" style="endArrow=none;html=1;rounded=0;" edge="1" parent="1" target="QdUmvHCU_gGnPU_W8vJt-46">
          <mxGeometry width="50" height="50" relative="1" as="geometry">
            <mxPoint x="-330" y="1139.0716215952652" as="sourcePoint" />
            <mxPoint x="233" y="561" as="targetPoint" />
          </mxGeometry>
        </mxCell>
        <mxCell id="QdUmvHCU_gGnPU_W8vJt-139" style="rounded=0;orthogonalLoop=1;jettySize=auto;html=1;dashed=1;dashPattern=8 8;" edge="1" parent="1" target="QdUmvHCU_gGnPU_W8vJt-45">
          <mxGeometry relative="1" as="geometry">
            <mxPoint x="18.82901373576624" y="1414.121760301825" as="sourcePoint" />
            <mxPoint x="110" y="1640" as="targetPoint" />
          </mxGeometry>
        </mxCell>
        <mxCell id="QdUmvHCU_gGnPU_W8vJt-140" value="&amp;lt;&amp;lt;includes&amp;gt;&amp;gt;" style="edgeLabel;html=1;align=center;verticalAlign=middle;resizable=0;points=[];" vertex="1" connectable="0" parent="QdUmvHCU_gGnPU_W8vJt-139">
          <mxGeometry x="-0.0452" relative="1" as="geometry">
            <mxPoint as="offset" />
          </mxGeometry>
        </mxCell>
        <mxCell id="QdUmvHCU_gGnPU_W8vJt-62" style="rounded=0;orthogonalLoop=1;jettySize=auto;html=1;dashed=1;dashPattern=8 8;" edge="1" parent="1" source="QdUmvHCU_gGnPU_W8vJt-10">
          <mxGeometry relative="1" as="geometry">
            <mxPoint x="875" y="810" as="targetPoint" />
          </mxGeometry>
        </mxCell>
        <mxCell id="QdUmvHCU_gGnPU_W8vJt-63" value="&amp;lt;&amp;lt;includes&amp;gt;&amp;gt;" style="edgeLabel;html=1;align=center;verticalAlign=middle;resizable=0;points=[];" vertex="1" connectable="0" parent="QdUmvHCU_gGnPU_W8vJt-62">
          <mxGeometry x="-0.0452" relative="1" as="geometry">
            <mxPoint as="offset" />
          </mxGeometry>
        </mxCell>
        <mxCell id="QdUmvHCU_gGnPU_W8vJt-201" value="" style="endArrow=none;html=1;rounded=0;strokeColor=default;align=center;verticalAlign=middle;fontFamily=Helvetica;fontSize=11;fontColor=default;labelBackgroundColor=default;" edge="1" parent="1" target="QdUmvHCU_gGnPU_W8vJt-33">
          <mxGeometry width="50" height="50" relative="1" as="geometry">
            <mxPoint x="941.874311430045" y="711.331285596154" as="sourcePoint" />
            <mxPoint x="1260" y="180" as="targetPoint" />
          </mxGeometry>
        </mxCell>
        <mxCell id="QdUmvHCU_gGnPU_W8vJt-202" value="" style="endArrow=none;html=1;rounded=0;strokeColor=default;align=center;verticalAlign=middle;fontFamily=Helvetica;fontSize=11;fontColor=default;labelBackgroundColor=default;" edge="1" parent="1" target="QdUmvHCU_gGnPU_W8vJt-36">
          <mxGeometry width="50" height="50" relative="1" as="geometry">
            <mxPoint x="962.1681902511136" y="721.4526207866375" as="sourcePoint" />
            <mxPoint x="1520" y="350" as="targetPoint" />
          </mxGeometry>
        </mxCell>
        <mxCell id="QdUmvHCU_gGnPU_W8vJt-209" value="" style="endArrow=none;html=1;rounded=0;strokeColor=default;align=center;verticalAlign=middle;fontFamily=Helvetica;fontSize=11;fontColor=default;labelBackgroundColor=default;" edge="1" parent="1" target="QdUmvHCU_gGnPU_W8vJt-43">
          <mxGeometry width="50" height="50" relative="1" as="geometry">
            <mxPoint x="915.8896093818603" y="59.61199820664933" as="sourcePoint" />
            <mxPoint x="1520" y="350" as="targetPoint" />
          </mxGeometry>
        </mxCell>
        <mxCell id="QdUmvHCU_gGnPU_W8vJt-210" value="" style="endArrow=none;html=1;rounded=0;strokeColor=default;align=center;verticalAlign=middle;fontFamily=Helvetica;fontSize=11;fontColor=default;labelBackgroundColor=default;" edge="1" parent="1" target="QdUmvHCU_gGnPU_W8vJt-40">
          <mxGeometry width="50" height="50" relative="1" as="geometry">
            <mxPoint x="911.5204277313278" y="42.03520172124536" as="sourcePoint" />
            <mxPoint x="1520" y="109" as="targetPoint" />
          </mxGeometry>
        </mxCell>
        <mxCell id="QdUmvHCU_gGnPU_W8vJt-245" value="Use Template" style="ellipse;whiteSpace=wrap;html=1;" vertex="1" parent="1">
          <mxGeometry y="-492" width="140" height="70" as="geometry" />
        </mxCell>
        <mxCell id="QdUmvHCU_gGnPU_W8vJt-247" value="Search" style="ellipse;whiteSpace=wrap;html=1;" vertex="1" parent="1">
          <mxGeometry x="144" y="-1236" width="140" height="70" as="geometry" />
        </mxCell>
        <mxCell id="QdUmvHCU_gGnPU_W8vJt-248" value="Share" style="ellipse;whiteSpace=wrap;html=1;" vertex="1" parent="1">
          <mxGeometry x="179" y="-1126" width="140" height="70" as="geometry" />
        </mxCell>
        <mxCell id="QdUmvHCU_gGnPU_W8vJt-249" value="Buy System Service" style="ellipse;whiteSpace=wrap;html=1;" vertex="1" parent="1">
          <mxGeometry x="179" y="-1469" width="140" height="70" as="geometry" />
        </mxCell>
        <mxCell id="QdUmvHCU_gGnPU_W8vJt-250" value="Select System Service" style="ellipse;whiteSpace=wrap;html=1;" vertex="1" parent="1">
          <mxGeometry x="190" y="-1364" width="140" height="70" as="geometry" />
        </mxCell>
        <mxCell id="QdUmvHCU_gGnPU_W8vJt-251" value="Google Authenticator Service" style="shape=umlActor;verticalLabelPosition=bottom;verticalAlign=top;html=1;outlineConnect=0;container=0;flipV=0;" vertex="1" parent="1">
          <mxGeometry x="732.5" y="-624" width="30" height="60" as="geometry" />
        </mxCell>
        <mxCell id="QdUmvHCU_gGnPU_W8vJt-252" value="Facebook Authenticator Service" style="shape=umlActor;verticalLabelPosition=bottom;verticalAlign=top;html=1;outlineConnect=0;container=0;flipV=0;" vertex="1" parent="1">
          <mxGeometry x="732.5" y="-791" width="30" height="60" as="geometry" />
        </mxCell>
        <mxCell id="QdUmvHCU_gGnPU_W8vJt-253" value="Momo Credit Service" style="shape=umlActor;verticalLabelPosition=bottom;verticalAlign=top;html=1;outlineConnect=0;container=0;" vertex="1" parent="1">
          <mxGeometry x="831.5" y="-1613" width="30" height="60" as="geometry" />
        </mxCell>
        <mxCell id="QdUmvHCU_gGnPU_W8vJt-254" value="Mastercard Bank Service" style="shape=umlActor;verticalLabelPosition=bottom;verticalAlign=top;html=1;outlineConnect=0;container=0;" vertex="1" parent="1">
          <mxGeometry x="833" y="-1882" width="30" height="60" as="geometry" />
        </mxCell>
        <mxCell id="QdUmvHCU_gGnPU_W8vJt-255" value="Modify ProfilePage" style="ellipse;whiteSpace=wrap;html=1;" vertex="1" parent="1">
          <mxGeometry x="157" y="-670" width="140" height="70" as="geometry" />
        </mxCell>
        <mxCell id="QdUmvHCU_gGnPU_W8vJt-256" value="Preview ProfilePage" style="ellipse;whiteSpace=wrap;html=1;" vertex="1" parent="1">
          <mxGeometry x="106" y="-581" width="140" height="70" as="geometry" />
        </mxCell>
        <mxCell id="QdUmvHCU_gGnPU_W8vJt-257" value="Preview Ads" style="ellipse;whiteSpace=wrap;html=1;" vertex="1" parent="1">
          <mxGeometry x="291" y="-965" width="140" height="70" as="geometry" />
        </mxCell>
        <mxCell id="QdUmvHCU_gGnPU_W8vJt-260" value="Buy Ads Space" style="ellipse;whiteSpace=wrap;html=1;" vertex="1" parent="1">
          <mxGeometry x="182" y="-839" width="140" height="70" as="geometry" />
        </mxCell>
        <mxCell id="QdUmvHCU_gGnPU_W8vJt-261" value="Sign Out" style="ellipse;whiteSpace=wrap;html=1;flipH=1;flipV=1;" vertex="1" parent="1">
          <mxGeometry x="350" y="-662" width="140" height="70" as="geometry" />
        </mxCell>
        <mxCell id="QdUmvHCU_gGnPU_W8vJt-262" value="Sign In&lt;span style=&quot;white-space: pre;&quot;&gt;&#x9;&lt;/span&gt;" style="ellipse;whiteSpace=wrap;html=1;flipH=1;flipV=1;fontStyle=0" vertex="1" parent="1">
          <mxGeometry x="403" y="-820" width="135" height="67.5" as="geometry" />
        </mxCell>
        <mxCell id="QdUmvHCU_gGnPU_W8vJt-263" value="Customer" style="shape=umlActor;verticalLabelPosition=bottom;verticalAlign=top;html=1;outlineConnect=0;" vertex="1" parent="1">
          <mxGeometry x="-120" y="-1140" width="30" height="60" as="geometry" />
        </mxCell>
        <mxCell id="QdUmvHCU_gGnPU_W8vJt-266" value="Sign In With Facebook&lt;span style=&quot;white-space: pre;&quot;&gt;&#x9;&lt;/span&gt;" style="ellipse;whiteSpace=wrap;html=1;flipH=1;flipV=1;fontStyle=0" vertex="1" parent="1">
          <mxGeometry x="576" y="-900" width="143" height="66" as="geometry" />
        </mxCell>
        <mxCell id="QdUmvHCU_gGnPU_W8vJt-267" value="Sign In With Google&lt;span style=&quot;white-space: pre;&quot;&gt;&#x9;&lt;/span&gt;" style="ellipse;whiteSpace=wrap;html=1;flipH=1;flipV=1;fontStyle=0" vertex="1" parent="1">
          <mxGeometry x="528" y="-703" width="143" height="66" as="geometry" />
        </mxCell>
        <mxCell id="QdUmvHCU_gGnPU_W8vJt-269" value="" style="endArrow=block;endSize=16;endFill=0;html=1;rounded=0;strokeColor=default;align=center;verticalAlign=middle;fontFamily=Helvetica;fontSize=11;fontColor=default;labelBackgroundColor=default;" edge="1" parent="1" source="QdUmvHCU_gGnPU_W8vJt-266" target="QdUmvHCU_gGnPU_W8vJt-262">
          <mxGeometry width="160" relative="1" as="geometry">
            <mxPoint x="208.5" y="-610" as="sourcePoint" />
            <mxPoint x="368.5" y="-610" as="targetPoint" />
          </mxGeometry>
        </mxCell>
        <mxCell id="QdUmvHCU_gGnPU_W8vJt-270" value="" style="endArrow=block;endSize=16;endFill=0;html=1;rounded=0;strokeColor=default;align=center;verticalAlign=middle;fontFamily=Helvetica;fontSize=11;fontColor=default;labelBackgroundColor=default;" edge="1" parent="1" source="QdUmvHCU_gGnPU_W8vJt-267" target="QdUmvHCU_gGnPU_W8vJt-262">
          <mxGeometry width="160" relative="1" as="geometry">
            <mxPoint x="386" y="-617" as="sourcePoint" />
            <mxPoint x="423" y="-584" as="targetPoint" />
          </mxGeometry>
        </mxCell>
        <mxCell id="QdUmvHCU_gGnPU_W8vJt-271" value="&amp;lt;&amp;lt;includes&amp;gt;&amp;gt;" style="endArrow=open;endSize=12;dashed=1;html=1;rounded=0;dashPattern=8 8;strokeColor=default;align=center;verticalAlign=middle;fontFamily=Helvetica;fontSize=11;fontColor=default;labelBackgroundColor=default;" edge="1" parent="1" source="QdUmvHCU_gGnPU_W8vJt-261" target="QdUmvHCU_gGnPU_W8vJt-262">
          <mxGeometry width="160" relative="1" as="geometry">
            <mxPoint x="217.5" y="-516" as="sourcePoint" />
            <mxPoint x="377.5" y="-516" as="targetPoint" />
          </mxGeometry>
        </mxCell>
        <mxCell id="QdUmvHCU_gGnPU_W8vJt-272" value="" style="endArrow=none;html=1;rounded=0;strokeColor=default;align=center;verticalAlign=middle;fontFamily=Helvetica;fontSize=11;fontColor=default;labelBackgroundColor=default;" edge="1" parent="1" source="QdUmvHCU_gGnPU_W8vJt-252" target="QdUmvHCU_gGnPU_W8vJt-266">
          <mxGeometry width="50" height="50" relative="1" as="geometry">
            <mxPoint x="586.5" y="-242" as="sourcePoint" />
            <mxPoint x="506.5" y="-462" as="targetPoint" />
          </mxGeometry>
        </mxCell>
        <mxCell id="QdUmvHCU_gGnPU_W8vJt-274" value="" style="endArrow=none;html=1;rounded=0;strokeColor=default;align=center;verticalAlign=middle;fontFamily=Helvetica;fontSize=11;fontColor=default;labelBackgroundColor=default;" edge="1" parent="1" source="QdUmvHCU_gGnPU_W8vJt-251" target="QdUmvHCU_gGnPU_W8vJt-267">
          <mxGeometry width="50" height="50" relative="1" as="geometry">
            <mxPoint x="628.5" y="-705" as="sourcePoint" />
            <mxPoint x="247.5" y="-683" as="targetPoint" />
          </mxGeometry>
        </mxCell>
        <mxCell id="QdUmvHCU_gGnPU_W8vJt-277" value="Pay" style="ellipse;whiteSpace=wrap;html=1;" vertex="1" parent="1">
          <mxGeometry x="195" y="-1618" width="140" height="70" as="geometry" />
        </mxCell>
        <mxCell id="QdUmvHCU_gGnPU_W8vJt-278" style="rounded=0;orthogonalLoop=1;jettySize=auto;html=1;endArrow=block;endFill=0;" edge="1" parent="1" source="QdUmvHCU_gGnPU_W8vJt-297" target="QdUmvHCU_gGnPU_W8vJt-277">
          <mxGeometry relative="1" as="geometry">
            <mxPoint x="387.5" y="-1519" as="sourcePoint" />
            <mxPoint x="490.5" y="-1659" as="targetPoint" />
          </mxGeometry>
        </mxCell>
        <mxCell id="QdUmvHCU_gGnPU_W8vJt-280" style="rounded=0;orthogonalLoop=1;jettySize=auto;html=1;endArrow=block;endFill=0;" edge="1" parent="1" source="QdUmvHCU_gGnPU_W8vJt-298" target="QdUmvHCU_gGnPU_W8vJt-277">
          <mxGeometry relative="1" as="geometry">
            <mxPoint x="613.5" y="-1463" as="sourcePoint" />
            <mxPoint x="695.5" y="-1612" as="targetPoint" />
          </mxGeometry>
        </mxCell>
        <mxCell id="QdUmvHCU_gGnPU_W8vJt-282" style="rounded=0;orthogonalLoop=1;jettySize=auto;html=1;endArrow=block;endFill=0;" edge="1" parent="1" source="QdUmvHCU_gGnPU_W8vJt-299" target="QdUmvHCU_gGnPU_W8vJt-277">
          <mxGeometry relative="1" as="geometry">
            <mxPoint x="452.5" y="-1453" as="sourcePoint" />
            <mxPoint x="553.5" y="-1602" as="targetPoint" />
          </mxGeometry>
        </mxCell>
        <mxCell id="QdUmvHCU_gGnPU_W8vJt-286" style="rounded=0;orthogonalLoop=1;jettySize=auto;html=1;endArrow=block;endFill=0;" edge="1" parent="1" source="QdUmvHCU_gGnPU_W8vJt-297" target="QdUmvHCU_gGnPU_W8vJt-301">
          <mxGeometry relative="1" as="geometry">
            <mxPoint x="554" y="-1362" as="sourcePoint" />
            <mxPoint x="519" y="-1398.75" as="targetPoint" />
          </mxGeometry>
        </mxCell>
        <mxCell id="QdUmvHCU_gGnPU_W8vJt-297" value="Pay By Paypal" style="ellipse;whiteSpace=wrap;html=1;" vertex="1" parent="1">
          <mxGeometry x="345" y="-1331" width="140" height="70" as="geometry" />
        </mxCell>
        <mxCell id="QdUmvHCU_gGnPU_W8vJt-298" value="Pay By Momo" style="ellipse;whiteSpace=wrap;html=1;" vertex="1" parent="1">
          <mxGeometry x="675" y="-1618" width="140" height="70" as="geometry" />
        </mxCell>
        <mxCell id="QdUmvHCU_gGnPU_W8vJt-299" value="Pay By Mastercard" style="ellipse;whiteSpace=wrap;html=1;" vertex="1" parent="1">
          <mxGeometry x="345" y="-1884" width="140" height="70" as="geometry" />
        </mxCell>
        <mxCell id="QdUmvHCU_gGnPU_W8vJt-301" value="Scan QRcode" style="ellipse;whiteSpace=wrap;html=1;" vertex="1" parent="1">
          <mxGeometry x="501" y="-1501" width="140" height="70" as="geometry" />
        </mxCell>
        <mxCell id="QdUmvHCU_gGnPU_W8vJt-302" value="Pay Directly" style="ellipse;whiteSpace=wrap;html=1;" vertex="1" parent="1">
          <mxGeometry x="470" y="-1695" width="140" height="70" as="geometry" />
        </mxCell>
        <mxCell id="QdUmvHCU_gGnPU_W8vJt-307" value="" style="endArrow=none;html=1;rounded=0;strokeColor=default;align=center;verticalAlign=middle;fontFamily=Helvetica;fontSize=11;fontColor=default;labelBackgroundColor=default;" edge="1" parent="1" source="QdUmvHCU_gGnPU_W8vJt-308" target="QdUmvHCU_gGnPU_W8vJt-297">
          <mxGeometry width="50" height="50" relative="1" as="geometry">
            <mxPoint x="725" y="-1352" as="sourcePoint" />
            <mxPoint x="529" y="-1297" as="targetPoint" />
          </mxGeometry>
        </mxCell>
        <mxCell id="QdUmvHCU_gGnPU_W8vJt-308" value="Paypal Credit Service" style="shape=umlActor;verticalLabelPosition=bottom;verticalAlign=top;html=1;outlineConnect=0;container=0;" vertex="1" parent="1">
          <mxGeometry x="833" y="-1324" width="30" height="60" as="geometry" />
        </mxCell>
        <mxCell id="QdUmvHCU_gGnPU_W8vJt-309" value="" style="endArrow=none;html=1;rounded=0;strokeColor=default;align=center;verticalAlign=middle;fontFamily=Helvetica;fontSize=11;fontColor=default;labelBackgroundColor=default;" edge="1" parent="1" source="QdUmvHCU_gGnPU_W8vJt-254" target="QdUmvHCU_gGnPU_W8vJt-299">
          <mxGeometry width="50" height="50" relative="1" as="geometry">
            <mxPoint x="900" y="-1298" as="sourcePoint" />
            <mxPoint x="489" y="-1428" as="targetPoint" />
          </mxGeometry>
        </mxCell>
        <mxCell id="QdUmvHCU_gGnPU_W8vJt-310" value="" style="endArrow=none;html=1;rounded=0;strokeColor=default;align=center;verticalAlign=middle;fontFamily=Helvetica;fontSize=11;fontColor=default;labelBackgroundColor=default;" edge="1" parent="1" source="QdUmvHCU_gGnPU_W8vJt-253" target="QdUmvHCU_gGnPU_W8vJt-298">
          <mxGeometry width="50" height="50" relative="1" as="geometry">
            <mxPoint x="910" y="-1288" as="sourcePoint" />
            <mxPoint x="499" y="-1418" as="targetPoint" />
          </mxGeometry>
        </mxCell>
        <mxCell id="QdUmvHCU_gGnPU_W8vJt-312" value="" style="endArrow=none;html=1;rounded=0;strokeColor=default;align=center;verticalAlign=middle;fontFamily=Helvetica;fontSize=11;fontColor=default;labelBackgroundColor=default;" edge="1" parent="1" source="QdUmvHCU_gGnPU_W8vJt-277" target="QdUmvHCU_gGnPU_W8vJt-263">
          <mxGeometry width="50" height="50" relative="1" as="geometry">
            <mxPoint x="843" y="-1284" as="sourcePoint" />
            <mxPoint x="495" y="-1286" as="targetPoint" />
          </mxGeometry>
        </mxCell>
        <mxCell id="QdUmvHCU_gGnPU_W8vJt-313" value="" style="endArrow=none;html=1;rounded=0;strokeColor=default;align=center;verticalAlign=middle;fontFamily=Helvetica;fontSize=11;fontColor=default;labelBackgroundColor=default;" edge="1" parent="1" source="QdUmvHCU_gGnPU_W8vJt-249" target="QdUmvHCU_gGnPU_W8vJt-263">
          <mxGeometry width="50" height="50" relative="1" as="geometry">
            <mxPoint x="249" y="-1540" as="sourcePoint" />
            <mxPoint x="-80" y="-1119" as="targetPoint" />
          </mxGeometry>
        </mxCell>
        <mxCell id="QdUmvHCU_gGnPU_W8vJt-314" value="" style="endArrow=none;html=1;rounded=0;strokeColor=default;align=center;verticalAlign=middle;fontFamily=Helvetica;fontSize=11;fontColor=default;labelBackgroundColor=default;" edge="1" parent="1" source="QdUmvHCU_gGnPU_W8vJt-250" target="QdUmvHCU_gGnPU_W8vJt-263">
          <mxGeometry width="50" height="50" relative="1" as="geometry">
            <mxPoint x="259" y="-1530" as="sourcePoint" />
            <mxPoint x="-70" y="-1109" as="targetPoint" />
          </mxGeometry>
        </mxCell>
        <mxCell id="QdUmvHCU_gGnPU_W8vJt-315" value="" style="endArrow=none;html=1;rounded=0;strokeColor=default;align=center;verticalAlign=middle;fontFamily=Helvetica;fontSize=11;fontColor=default;labelBackgroundColor=default;" edge="1" parent="1" source="QdUmvHCU_gGnPU_W8vJt-247" target="QdUmvHCU_gGnPU_W8vJt-263">
          <mxGeometry width="50" height="50" relative="1" as="geometry">
            <mxPoint x="269" y="-1520" as="sourcePoint" />
            <mxPoint x="-60" y="-1099" as="targetPoint" />
          </mxGeometry>
        </mxCell>
        <mxCell id="QdUmvHCU_gGnPU_W8vJt-316" value="" style="endArrow=none;html=1;rounded=0;strokeColor=default;align=center;verticalAlign=middle;fontFamily=Helvetica;fontSize=11;fontColor=default;labelBackgroundColor=default;" edge="1" parent="1" source="QdUmvHCU_gGnPU_W8vJt-248" target="QdUmvHCU_gGnPU_W8vJt-263">
          <mxGeometry width="50" height="50" relative="1" as="geometry">
            <mxPoint x="213" y="-1184" as="sourcePoint" />
            <mxPoint x="-50" y="-1089" as="targetPoint" />
          </mxGeometry>
        </mxCell>
        <mxCell id="QdUmvHCU_gGnPU_W8vJt-317" value="" style="endArrow=none;html=1;rounded=0;strokeColor=default;align=center;verticalAlign=middle;fontFamily=Helvetica;fontSize=11;fontColor=default;labelBackgroundColor=default;" edge="1" parent="1" source="QdUmvHCU_gGnPU_W8vJt-257" target="QdUmvHCU_gGnPU_W8vJt-263">
          <mxGeometry width="50" height="50" relative="1" as="geometry">
            <mxPoint x="200" y="-1087" as="sourcePoint" />
            <mxPoint x="-40" y="-1079" as="targetPoint" />
          </mxGeometry>
        </mxCell>
        <mxCell id="QdUmvHCU_gGnPU_W8vJt-318" value="" style="endArrow=none;html=1;rounded=0;strokeColor=default;align=center;verticalAlign=middle;fontFamily=Helvetica;fontSize=11;fontColor=default;labelBackgroundColor=default;" edge="1" parent="1" source="QdUmvHCU_gGnPU_W8vJt-260" target="QdUmvHCU_gGnPU_W8vJt-263">
          <mxGeometry width="50" height="50" relative="1" as="geometry">
            <mxPoint x="211" y="-992" as="sourcePoint" />
            <mxPoint x="-30" y="-1069" as="targetPoint" />
          </mxGeometry>
        </mxCell>
        <mxCell id="QdUmvHCU_gGnPU_W8vJt-319" value="" style="endArrow=none;html=1;rounded=0;strokeColor=default;align=center;verticalAlign=middle;fontFamily=Helvetica;fontSize=11;fontColor=default;labelBackgroundColor=default;" edge="1" parent="1" source="QdUmvHCU_gGnPU_W8vJt-262" target="QdUmvHCU_gGnPU_W8vJt-263">
          <mxGeometry width="50" height="50" relative="1" as="geometry">
            <mxPoint x="229" y="-886" as="sourcePoint" />
            <mxPoint x="-20" y="-1059" as="targetPoint" />
          </mxGeometry>
        </mxCell>
        <mxCell id="QdUmvHCU_gGnPU_W8vJt-320" value="" style="endArrow=none;html=1;rounded=0;strokeColor=default;align=center;verticalAlign=middle;fontFamily=Helvetica;fontSize=11;fontColor=default;labelBackgroundColor=default;" edge="1" parent="1" source="QdUmvHCU_gGnPU_W8vJt-261" target="QdUmvHCU_gGnPU_W8vJt-263">
          <mxGeometry width="50" height="50" relative="1" as="geometry">
            <mxPoint x="249" y="-694" as="sourcePoint" />
            <mxPoint x="-10" y="-1049" as="targetPoint" />
          </mxGeometry>
        </mxCell>
        <mxCell id="QdUmvHCU_gGnPU_W8vJt-321" value="" style="endArrow=none;html=1;rounded=0;strokeColor=default;align=center;verticalAlign=middle;fontFamily=Helvetica;fontSize=11;fontColor=default;labelBackgroundColor=default;" edge="1" parent="1" source="QdUmvHCU_gGnPU_W8vJt-255" target="QdUmvHCU_gGnPU_W8vJt-263">
          <mxGeometry width="50" height="50" relative="1" as="geometry">
            <mxPoint x="255" y="-558" as="sourcePoint" />
            <mxPoint y="-1039" as="targetPoint" />
          </mxGeometry>
        </mxCell>
        <mxCell id="QdUmvHCU_gGnPU_W8vJt-322" value="" style="endArrow=none;html=1;rounded=0;strokeColor=default;align=center;verticalAlign=middle;fontFamily=Helvetica;fontSize=11;fontColor=default;labelBackgroundColor=default;" edge="1" parent="1" source="QdUmvHCU_gGnPU_W8vJt-256" target="QdUmvHCU_gGnPU_W8vJt-263">
          <mxGeometry width="50" height="50" relative="1" as="geometry">
            <mxPoint x="259" y="-423" as="sourcePoint" />
            <mxPoint x="10" y="-1029" as="targetPoint" />
          </mxGeometry>
        </mxCell>
        <mxCell id="QdUmvHCU_gGnPU_W8vJt-323" value="" style="endArrow=none;html=1;rounded=0;strokeColor=default;align=center;verticalAlign=middle;fontFamily=Helvetica;fontSize=11;fontColor=default;labelBackgroundColor=default;" edge="1" parent="1" source="QdUmvHCU_gGnPU_W8vJt-245" target="QdUmvHCU_gGnPU_W8vJt-263">
          <mxGeometry width="50" height="50" relative="1" as="geometry">
            <mxPoint x="261" y="-309" as="sourcePoint" />
            <mxPoint x="20" y="-1019" as="targetPoint" />
          </mxGeometry>
        </mxCell>
        <mxCell id="QdUmvHCU_gGnPU_W8vJt-325" value="Use Template" style="ellipse;whiteSpace=wrap;html=1;" vertex="1" parent="1">
          <mxGeometry x="1578" y="-1286" width="140" height="70" as="geometry" />
        </mxCell>
        <mxCell id="QdUmvHCU_gGnPU_W8vJt-338" value="Modify Ads" style="ellipse;whiteSpace=wrap;html=1;" vertex="1" parent="1">
          <mxGeometry x="1500.5" y="-1431" width="140" height="70" as="geometry" />
        </mxCell>
        <mxCell id="QdUmvHCU_gGnPU_W8vJt-339" value="Create Ads" style="ellipse;whiteSpace=wrap;html=1;" vertex="1" parent="1">
          <mxGeometry x="1514.5" y="-1150" width="140" height="70" as="geometry" />
        </mxCell>
        <mxCell id="QdUmvHCU_gGnPU_W8vJt-345" style="rounded=0;orthogonalLoop=1;jettySize=auto;html=1;strokeColor=default;align=center;verticalAlign=middle;fontFamily=Helvetica;fontSize=11;fontColor=default;labelBackgroundColor=default;endArrow=blockThin;endFill=0;" edge="1" parent="1" source="QdUmvHCU_gGnPU_W8vJt-343" target="QdUmvHCU_gGnPU_W8vJt-344">
          <mxGeometry relative="1" as="geometry" />
        </mxCell>
        <mxCell id="QdUmvHCU_gGnPU_W8vJt-346" style="rounded=0;orthogonalLoop=1;jettySize=auto;html=1;strokeColor=default;align=center;verticalAlign=middle;fontFamily=Helvetica;fontSize=11;fontColor=default;labelBackgroundColor=default;endArrow=none;endFill=0;" edge="1" parent="1" source="QdUmvHCU_gGnPU_W8vJt-343" target="QdUmvHCU_gGnPU_W8vJt-325">
          <mxGeometry relative="1" as="geometry" />
        </mxCell>
        <mxCell id="QdUmvHCU_gGnPU_W8vJt-343" value="Merchant" style="shape=umlActor;verticalLabelPosition=bottom;verticalAlign=top;html=1;outlineConnect=0;" vertex="1" parent="1">
          <mxGeometry x="1421.5" y="-1226" width="30" height="60" as="geometry" />
        </mxCell>
        <mxCell id="QdUmvHCU_gGnPU_W8vJt-344" value="Customer" style="shape=umlActor;verticalLabelPosition=bottom;verticalAlign=top;html=1;outlineConnect=0;" vertex="1" parent="1">
          <mxGeometry x="1335.5" y="-1226" width="30" height="60" as="geometry" />
        </mxCell>
        <mxCell id="QdUmvHCU_gGnPU_W8vJt-347" style="rounded=0;orthogonalLoop=1;jettySize=auto;html=1;strokeColor=default;align=center;verticalAlign=middle;fontFamily=Helvetica;fontSize=11;fontColor=default;labelBackgroundColor=default;endArrow=none;endFill=0;" edge="1" parent="1" source="QdUmvHCU_gGnPU_W8vJt-343" target="QdUmvHCU_gGnPU_W8vJt-339">
          <mxGeometry relative="1" as="geometry">
            <mxPoint x="1461.5" y="-1188" as="sourcePoint" />
            <mxPoint x="1548.5" y="-1198" as="targetPoint" />
          </mxGeometry>
        </mxCell>
        <mxCell id="QdUmvHCU_gGnPU_W8vJt-349" style="rounded=0;orthogonalLoop=1;jettySize=auto;html=1;strokeColor=default;align=center;verticalAlign=middle;fontFamily=Helvetica;fontSize=11;fontColor=default;labelBackgroundColor=default;endArrow=none;endFill=0;" edge="1" parent="1" source="QdUmvHCU_gGnPU_W8vJt-343" target="QdUmvHCU_gGnPU_W8vJt-338">
          <mxGeometry relative="1" as="geometry">
            <mxPoint x="1481.5" y="-1168" as="sourcePoint" />
            <mxPoint x="1583.5" y="-1265" as="targetPoint" />
          </mxGeometry>
        </mxCell>
        <mxCell id="QdUmvHCU_gGnPU_W8vJt-352" value="&amp;lt;&amp;lt;includes&amp;gt;&amp;gt;" style="endArrow=open;endSize=12;dashed=1;html=1;rounded=0;dashPattern=8 8;strokeColor=default;align=center;verticalAlign=middle;fontFamily=Helvetica;fontSize=11;fontColor=default;labelBackgroundColor=default;" edge="1" parent="1" source="QdUmvHCU_gGnPU_W8vJt-255" target="QdUmvHCU_gGnPU_W8vJt-262">
          <mxGeometry width="160" relative="1" as="geometry">
            <mxPoint x="397" y="-452" as="sourcePoint" />
            <mxPoint x="397" y="-554" as="targetPoint" />
          </mxGeometry>
        </mxCell>
        <mxCell id="QdUmvHCU_gGnPU_W8vJt-354" value="&amp;lt;&amp;lt;includes&amp;gt;&amp;gt;" style="endArrow=open;endSize=12;dashed=1;html=1;rounded=0;dashPattern=8 8;strokeColor=default;align=center;verticalAlign=middle;fontFamily=Helvetica;fontSize=11;fontColor=default;labelBackgroundColor=default;" edge="1" parent="1" source="QdUmvHCU_gGnPU_W8vJt-260" target="QdUmvHCU_gGnPU_W8vJt-262">
          <mxGeometry width="160" relative="1" as="geometry">
            <mxPoint x="467.31" y="-794.85" as="sourcePoint" />
            <mxPoint x="574.31" y="-891.85" as="targetPoint" />
          </mxGeometry>
        </mxCell>
        <mxCell id="QdUmvHCU_gGnPU_W8vJt-355" value="&amp;lt;&amp;lt;includes&amp;gt;&amp;gt;" style="endArrow=open;endSize=12;dashed=1;html=1;rounded=0;dashPattern=8 8;strokeColor=default;align=center;verticalAlign=middle;fontFamily=Helvetica;fontSize=11;fontColor=default;labelBackgroundColor=default;" edge="1" parent="1" source="QdUmvHCU_gGnPU_W8vJt-250" target="QdUmvHCU_gGnPU_W8vJt-262">
          <mxGeometry width="160" relative="1" as="geometry">
            <mxPoint x="378.74" y="-951.65" as="sourcePoint" />
            <mxPoint x="458.74" y="-812.65" as="targetPoint" />
          </mxGeometry>
        </mxCell>
        <mxCell id="QdUmvHCU_gGnPU_W8vJt-356" value="&amp;lt;&amp;lt;includes&amp;gt;&amp;gt;" style="endArrow=open;endSize=12;dashed=1;html=1;rounded=0;dashPattern=8 8;strokeColor=default;align=center;verticalAlign=middle;fontFamily=Helvetica;fontSize=11;fontColor=default;labelBackgroundColor=default;" edge="1" parent="1" source="QdUmvHCU_gGnPU_W8vJt-250" target="QdUmvHCU_gGnPU_W8vJt-249">
          <mxGeometry width="160" relative="1" as="geometry">
            <mxPoint x="357.40999999999997" y="-1376.21" as="sourcePoint" />
            <mxPoint x="549.41" y="-1028.21" as="targetPoint" />
          </mxGeometry>
        </mxCell>
        <mxCell id="QdUmvHCU_gGnPU_W8vJt-357" value="&amp;lt;&amp;lt;includes&amp;gt;&amp;gt;" style="endArrow=open;endSize=12;dashed=1;html=1;rounded=0;dashPattern=8 8;strokeColor=default;align=center;verticalAlign=middle;fontFamily=Helvetica;fontSize=11;fontColor=default;labelBackgroundColor=default;" edge="1" parent="1" source="QdUmvHCU_gGnPU_W8vJt-249" target="QdUmvHCU_gGnPU_W8vJt-277">
          <mxGeometry width="160" relative="1" as="geometry">
            <mxPoint x="266" y="-1354" as="sourcePoint" />
            <mxPoint x="263" y="-1389" as="targetPoint" />
          </mxGeometry>
        </mxCell>
        <mxCell id="QdUmvHCU_gGnPU_W8vJt-359" style="rounded=0;orthogonalLoop=1;jettySize=auto;html=1;endArrow=block;endFill=0;" edge="1" parent="1" source="QdUmvHCU_gGnPU_W8vJt-299" target="QdUmvHCU_gGnPU_W8vJt-301">
          <mxGeometry relative="1" as="geometry">
            <mxPoint x="448" y="-1319" as="sourcePoint" />
            <mxPoint x="527" y="-1435" as="targetPoint" />
          </mxGeometry>
        </mxCell>
        <mxCell id="QdUmvHCU_gGnPU_W8vJt-360" style="rounded=0;orthogonalLoop=1;jettySize=auto;html=1;endArrow=block;endFill=0;" edge="1" parent="1" source="QdUmvHCU_gGnPU_W8vJt-298" target="QdUmvHCU_gGnPU_W8vJt-301">
          <mxGeometry relative="1" as="geometry">
            <mxPoint x="437" y="-1804" as="sourcePoint" />
            <mxPoint x="538" y="-1503" as="targetPoint" />
          </mxGeometry>
        </mxCell>
        <mxCell id="QdUmvHCU_gGnPU_W8vJt-361" style="rounded=0;orthogonalLoop=1;jettySize=auto;html=1;endArrow=block;endFill=0;" edge="1" parent="1" source="QdUmvHCU_gGnPU_W8vJt-299" target="QdUmvHCU_gGnPU_W8vJt-302">
          <mxGeometry relative="1" as="geometry">
            <mxPoint x="588" y="-1742" as="sourcePoint" />
            <mxPoint x="474" y="-1794" as="targetPoint" />
          </mxGeometry>
        </mxCell>
        <mxCell id="QdUmvHCU_gGnPU_W8vJt-362" style="rounded=0;orthogonalLoop=1;jettySize=auto;html=1;endArrow=block;endFill=0;" edge="1" parent="1" source="QdUmvHCU_gGnPU_W8vJt-297" target="QdUmvHCU_gGnPU_W8vJt-302">
          <mxGeometry relative="1" as="geometry">
            <mxPoint x="457" y="-1784" as="sourcePoint" />
            <mxPoint x="558" y="-1483" as="targetPoint" />
          </mxGeometry>
        </mxCell>
        <mxCell id="QdUmvHCU_gGnPU_W8vJt-363" style="rounded=0;orthogonalLoop=1;jettySize=auto;html=1;endArrow=block;endFill=0;" edge="1" parent="1" source="QdUmvHCU_gGnPU_W8vJt-298" target="QdUmvHCU_gGnPU_W8vJt-302">
          <mxGeometry relative="1" as="geometry">
            <mxPoint x="467" y="-1774" as="sourcePoint" />
            <mxPoint x="568" y="-1473" as="targetPoint" />
          </mxGeometry>
        </mxCell>
        <mxCell id="QdUmvHCU_gGnPU_W8vJt-364" value="Use Template" style="ellipse;whiteSpace=wrap;html=1;" vertex="1" parent="1">
          <mxGeometry x="198" y="1222" width="140" height="70" as="geometry" />
        </mxCell>
        <mxCell id="QdUmvHCU_gGnPU_W8vJt-365" value="Search Ads" style="ellipse;whiteSpace=wrap;html=1;" vertex="1" parent="1">
          <mxGeometry x="317" y="590" width="140" height="70" as="geometry" />
        </mxCell>
        <mxCell id="QdUmvHCU_gGnPU_W8vJt-366" value="Share Ads" style="ellipse;whiteSpace=wrap;html=1;" vertex="1" parent="1">
          <mxGeometry x="397" y="673" width="140" height="70" as="geometry" />
        </mxCell>
        <mxCell id="QdUmvHCU_gGnPU_W8vJt-367" value="Buy System Service" style="ellipse;whiteSpace=wrap;html=1;" vertex="1" parent="1">
          <mxGeometry x="359" y="373" width="140" height="70" as="geometry" />
        </mxCell>
        <mxCell id="QdUmvHCU_gGnPU_W8vJt-368" value="Select System Service" style="ellipse;whiteSpace=wrap;html=1;" vertex="1" parent="1">
          <mxGeometry x="370" y="478" width="140" height="70" as="geometry" />
        </mxCell>
        <mxCell id="QdUmvHCU_gGnPU_W8vJt-369" value="Google Authenticator Service" style="shape=umlActor;verticalLabelPosition=bottom;verticalAlign=top;html=1;outlineConnect=0;container=0;flipV=0;" vertex="1" parent="1">
          <mxGeometry x="930.5" y="1090" width="30" height="60" as="geometry" />
        </mxCell>
        <mxCell id="QdUmvHCU_gGnPU_W8vJt-370" value="Facebook Authenticator Service" style="shape=umlActor;verticalLabelPosition=bottom;verticalAlign=top;html=1;outlineConnect=0;container=0;flipV=0;" vertex="1" parent="1">
          <mxGeometry x="930.5" y="923" width="30" height="60" as="geometry" />
        </mxCell>
        <mxCell id="QdUmvHCU_gGnPU_W8vJt-371" value="Momo Credit Service" style="shape=umlActor;verticalLabelPosition=bottom;verticalAlign=top;html=1;outlineConnect=0;container=0;" vertex="1" parent="1">
          <mxGeometry x="1011.5" y="229" width="30" height="60" as="geometry" />
        </mxCell>
        <mxCell id="QdUmvHCU_gGnPU_W8vJt-372" value="Mastercard Bank Service" style="shape=umlActor;verticalLabelPosition=bottom;verticalAlign=top;html=1;outlineConnect=0;container=0;" vertex="1" parent="1">
          <mxGeometry x="1013" y="-40" width="30" height="60" as="geometry" />
        </mxCell>
        <mxCell id="QdUmvHCU_gGnPU_W8vJt-373" value="Modify ProfilePage" style="ellipse;whiteSpace=wrap;html=1;" vertex="1" parent="1">
          <mxGeometry x="355" y="1044" width="140" height="70" as="geometry" />
        </mxCell>
        <mxCell id="QdUmvHCU_gGnPU_W8vJt-374" value="Preview ProfilePage" style="ellipse;whiteSpace=wrap;html=1;" vertex="1" parent="1">
          <mxGeometry x="304" y="1133" width="140" height="70" as="geometry" />
        </mxCell>
        <mxCell id="QdUmvHCU_gGnPU_W8vJt-375" value="Preview Ads" style="ellipse;whiteSpace=wrap;html=1;" vertex="1" parent="1">
          <mxGeometry x="336" y="753" width="140" height="70" as="geometry" />
        </mxCell>
        <mxCell id="QdUmvHCU_gGnPU_W8vJt-376" value="Buy Ads Space" style="ellipse;whiteSpace=wrap;html=1;" vertex="1" parent="1">
          <mxGeometry x="380" y="875" width="140" height="70" as="geometry" />
        </mxCell>
        <mxCell id="QdUmvHCU_gGnPU_W8vJt-377" value="Sign Out" style="ellipse;whiteSpace=wrap;html=1;flipH=1;flipV=1;" vertex="1" parent="1">
          <mxGeometry x="548" y="1052" width="140" height="70" as="geometry" />
        </mxCell>
        <mxCell id="QdUmvHCU_gGnPU_W8vJt-378" value="Sign In&lt;span style=&quot;white-space: pre;&quot;&gt;&#x9;&lt;/span&gt;" style="ellipse;whiteSpace=wrap;html=1;flipH=1;flipV=1;fontStyle=0" vertex="1" parent="1">
          <mxGeometry x="601" y="894" width="135" height="67.5" as="geometry" />
        </mxCell>
        <mxCell id="QdUmvHCU_gGnPU_W8vJt-379" value="Customer" style="shape=umlActor;verticalLabelPosition=bottom;verticalAlign=top;html=1;outlineConnect=0;" vertex="1" parent="1">
          <mxGeometry x="62" y="1014" width="30" height="60" as="geometry" />
        </mxCell>
        <mxCell id="QdUmvHCU_gGnPU_W8vJt-380" value="Sign In With Facebook&lt;span style=&quot;white-space: pre;&quot;&gt;&#x9;&lt;/span&gt;" style="ellipse;whiteSpace=wrap;html=1;flipH=1;flipV=1;fontStyle=0" vertex="1" parent="1">
          <mxGeometry x="774" y="814" width="143" height="66" as="geometry" />
        </mxCell>
        <mxCell id="QdUmvHCU_gGnPU_W8vJt-381" value="Sign In With Google&lt;span style=&quot;white-space: pre;&quot;&gt;&#x9;&lt;/span&gt;" style="ellipse;whiteSpace=wrap;html=1;flipH=1;flipV=1;fontStyle=0" vertex="1" parent="1">
          <mxGeometry x="726" y="1011" width="143" height="66" as="geometry" />
        </mxCell>
        <mxCell id="QdUmvHCU_gGnPU_W8vJt-382" value="" style="endArrow=block;endSize=16;endFill=0;html=1;rounded=0;strokeColor=default;align=center;verticalAlign=middle;fontFamily=Helvetica;fontSize=11;fontColor=default;labelBackgroundColor=default;" edge="1" parent="1" source="QdUmvHCU_gGnPU_W8vJt-380" target="QdUmvHCU_gGnPU_W8vJt-378">
          <mxGeometry width="160" relative="1" as="geometry">
            <mxPoint x="406.5" y="1104" as="sourcePoint" />
            <mxPoint x="566.5" y="1104" as="targetPoint" />
          </mxGeometry>
        </mxCell>
        <mxCell id="QdUmvHCU_gGnPU_W8vJt-383" value="" style="endArrow=block;endSize=16;endFill=0;html=1;rounded=0;strokeColor=default;align=center;verticalAlign=middle;fontFamily=Helvetica;fontSize=11;fontColor=default;labelBackgroundColor=default;" edge="1" parent="1" source="QdUmvHCU_gGnPU_W8vJt-381" target="QdUmvHCU_gGnPU_W8vJt-378">
          <mxGeometry width="160" relative="1" as="geometry">
            <mxPoint x="584" y="1097" as="sourcePoint" />
            <mxPoint x="621" y="1130" as="targetPoint" />
          </mxGeometry>
        </mxCell>
        <mxCell id="QdUmvHCU_gGnPU_W8vJt-384" value="&amp;lt;&amp;lt;includes&amp;gt;&amp;gt;" style="endArrow=open;endSize=12;dashed=1;html=1;rounded=0;dashPattern=8 8;strokeColor=default;align=center;verticalAlign=middle;fontFamily=Helvetica;fontSize=11;fontColor=default;labelBackgroundColor=default;" edge="1" parent="1" source="QdUmvHCU_gGnPU_W8vJt-377" target="QdUmvHCU_gGnPU_W8vJt-378">
          <mxGeometry width="160" relative="1" as="geometry">
            <mxPoint x="415.5" y="1198" as="sourcePoint" />
            <mxPoint x="575.5" y="1198" as="targetPoint" />
          </mxGeometry>
        </mxCell>
        <mxCell id="QdUmvHCU_gGnPU_W8vJt-385" value="" style="endArrow=none;html=1;rounded=0;strokeColor=default;align=center;verticalAlign=middle;fontFamily=Helvetica;fontSize=11;fontColor=default;labelBackgroundColor=default;" edge="1" parent="1" source="QdUmvHCU_gGnPU_W8vJt-370" target="QdUmvHCU_gGnPU_W8vJt-380">
          <mxGeometry width="50" height="50" relative="1" as="geometry">
            <mxPoint x="784.5" y="1472" as="sourcePoint" />
            <mxPoint x="704.5" y="1252" as="targetPoint" />
          </mxGeometry>
        </mxCell>
        <mxCell id="QdUmvHCU_gGnPU_W8vJt-386" value="" style="endArrow=none;html=1;rounded=0;strokeColor=default;align=center;verticalAlign=middle;fontFamily=Helvetica;fontSize=11;fontColor=default;labelBackgroundColor=default;" edge="1" parent="1" source="QdUmvHCU_gGnPU_W8vJt-369" target="QdUmvHCU_gGnPU_W8vJt-381">
          <mxGeometry width="50" height="50" relative="1" as="geometry">
            <mxPoint x="826.5" y="1009" as="sourcePoint" />
            <mxPoint x="445.5" y="1031" as="targetPoint" />
          </mxGeometry>
        </mxCell>
        <mxCell id="QdUmvHCU_gGnPU_W8vJt-387" value="Pay" style="ellipse;whiteSpace=wrap;html=1;" vertex="1" parent="1">
          <mxGeometry x="375" y="224" width="140" height="70" as="geometry" />
        </mxCell>
        <mxCell id="QdUmvHCU_gGnPU_W8vJt-388" style="rounded=0;orthogonalLoop=1;jettySize=auto;html=1;endArrow=block;endFill=0;" edge="1" parent="1" source="QdUmvHCU_gGnPU_W8vJt-392" target="QdUmvHCU_gGnPU_W8vJt-387">
          <mxGeometry relative="1" as="geometry">
            <mxPoint x="567.5" y="323" as="sourcePoint" />
            <mxPoint x="670.5" y="183" as="targetPoint" />
          </mxGeometry>
        </mxCell>
        <mxCell id="QdUmvHCU_gGnPU_W8vJt-389" style="rounded=0;orthogonalLoop=1;jettySize=auto;html=1;endArrow=block;endFill=0;" edge="1" parent="1" source="QdUmvHCU_gGnPU_W8vJt-393" target="QdUmvHCU_gGnPU_W8vJt-387">
          <mxGeometry relative="1" as="geometry">
            <mxPoint x="793.5" y="379" as="sourcePoint" />
            <mxPoint x="875.5" y="230" as="targetPoint" />
          </mxGeometry>
        </mxCell>
        <mxCell id="QdUmvHCU_gGnPU_W8vJt-390" style="rounded=0;orthogonalLoop=1;jettySize=auto;html=1;endArrow=block;endFill=0;" edge="1" parent="1" source="QdUmvHCU_gGnPU_W8vJt-394" target="QdUmvHCU_gGnPU_W8vJt-387">
          <mxGeometry relative="1" as="geometry">
            <mxPoint x="632.5" y="389" as="sourcePoint" />
            <mxPoint x="733.5" y="240" as="targetPoint" />
          </mxGeometry>
        </mxCell>
        <mxCell id="QdUmvHCU_gGnPU_W8vJt-391" style="rounded=0;orthogonalLoop=1;jettySize=auto;html=1;endArrow=block;endFill=0;" edge="1" parent="1" source="QdUmvHCU_gGnPU_W8vJt-392" target="QdUmvHCU_gGnPU_W8vJt-395">
          <mxGeometry relative="1" as="geometry">
            <mxPoint x="734" y="480" as="sourcePoint" />
            <mxPoint x="699" y="443.25" as="targetPoint" />
          </mxGeometry>
        </mxCell>
        <mxCell id="QdUmvHCU_gGnPU_W8vJt-392" value="Pay By Paypal" style="ellipse;whiteSpace=wrap;html=1;" vertex="1" parent="1">
          <mxGeometry x="525" y="511" width="140" height="70" as="geometry" />
        </mxCell>
        <mxCell id="QdUmvHCU_gGnPU_W8vJt-393" value="Pay By Momo" style="ellipse;whiteSpace=wrap;html=1;" vertex="1" parent="1">
          <mxGeometry x="855" y="224" width="140" height="70" as="geometry" />
        </mxCell>
        <mxCell id="QdUmvHCU_gGnPU_W8vJt-394" value="Pay By Mastercard" style="ellipse;whiteSpace=wrap;html=1;" vertex="1" parent="1">
          <mxGeometry x="525" y="-42" width="140" height="70" as="geometry" />
        </mxCell>
        <mxCell id="QdUmvHCU_gGnPU_W8vJt-395" value="Scan QRcode" style="ellipse;whiteSpace=wrap;html=1;" vertex="1" parent="1">
          <mxGeometry x="681" y="341" width="140" height="70" as="geometry" />
        </mxCell>
        <mxCell id="QdUmvHCU_gGnPU_W8vJt-396" value="Pay Directly" style="ellipse;whiteSpace=wrap;html=1;" vertex="1" parent="1">
          <mxGeometry x="650" y="147" width="140" height="70" as="geometry" />
        </mxCell>
        <mxCell id="QdUmvHCU_gGnPU_W8vJt-397" value="" style="endArrow=none;html=1;rounded=0;strokeColor=default;align=center;verticalAlign=middle;fontFamily=Helvetica;fontSize=11;fontColor=default;labelBackgroundColor=default;" edge="1" parent="1" source="QdUmvHCU_gGnPU_W8vJt-398" target="QdUmvHCU_gGnPU_W8vJt-392">
          <mxGeometry width="50" height="50" relative="1" as="geometry">
            <mxPoint x="905" y="490" as="sourcePoint" />
            <mxPoint x="709" y="545" as="targetPoint" />
          </mxGeometry>
        </mxCell>
        <mxCell id="QdUmvHCU_gGnPU_W8vJt-398" value="Paypal Credit Service" style="shape=umlActor;verticalLabelPosition=bottom;verticalAlign=top;html=1;outlineConnect=0;container=0;" vertex="1" parent="1">
          <mxGeometry x="1013" y="518" width="30" height="60" as="geometry" />
        </mxCell>
        <mxCell id="QdUmvHCU_gGnPU_W8vJt-399" value="" style="endArrow=none;html=1;rounded=0;strokeColor=default;align=center;verticalAlign=middle;fontFamily=Helvetica;fontSize=11;fontColor=default;labelBackgroundColor=default;" edge="1" parent="1" source="QdUmvHCU_gGnPU_W8vJt-372" target="QdUmvHCU_gGnPU_W8vJt-394">
          <mxGeometry width="50" height="50" relative="1" as="geometry">
            <mxPoint x="1080" y="544" as="sourcePoint" />
            <mxPoint x="669" y="414" as="targetPoint" />
          </mxGeometry>
        </mxCell>
        <mxCell id="QdUmvHCU_gGnPU_W8vJt-400" value="" style="endArrow=none;html=1;rounded=0;strokeColor=default;align=center;verticalAlign=middle;fontFamily=Helvetica;fontSize=11;fontColor=default;labelBackgroundColor=default;" edge="1" parent="1" source="QdUmvHCU_gGnPU_W8vJt-371" target="QdUmvHCU_gGnPU_W8vJt-393">
          <mxGeometry width="50" height="50" relative="1" as="geometry">
            <mxPoint x="1090" y="554" as="sourcePoint" />
            <mxPoint x="679" y="424" as="targetPoint" />
          </mxGeometry>
        </mxCell>
        <mxCell id="QdUmvHCU_gGnPU_W8vJt-401" value="" style="endArrow=none;html=1;rounded=0;strokeColor=default;align=center;verticalAlign=middle;fontFamily=Helvetica;fontSize=11;fontColor=default;labelBackgroundColor=default;" edge="1" parent="1" source="QdUmvHCU_gGnPU_W8vJt-387" target="QdUmvHCU_gGnPU_W8vJt-379">
          <mxGeometry width="50" height="50" relative="1" as="geometry">
            <mxPoint x="1023" y="558" as="sourcePoint" />
            <mxPoint x="675" y="556" as="targetPoint" />
          </mxGeometry>
        </mxCell>
        <mxCell id="QdUmvHCU_gGnPU_W8vJt-402" value="" style="endArrow=none;html=1;rounded=0;strokeColor=default;align=center;verticalAlign=middle;fontFamily=Helvetica;fontSize=11;fontColor=default;labelBackgroundColor=default;" edge="1" parent="1" source="QdUmvHCU_gGnPU_W8vJt-367" target="QdUmvHCU_gGnPU_W8vJt-379">
          <mxGeometry width="50" height="50" relative="1" as="geometry">
            <mxPoint x="429" y="302" as="sourcePoint" />
            <mxPoint x="100" y="723" as="targetPoint" />
          </mxGeometry>
        </mxCell>
        <mxCell id="QdUmvHCU_gGnPU_W8vJt-403" value="" style="endArrow=none;html=1;rounded=0;strokeColor=default;align=center;verticalAlign=middle;fontFamily=Helvetica;fontSize=11;fontColor=default;labelBackgroundColor=default;" edge="1" parent="1" source="QdUmvHCU_gGnPU_W8vJt-368" target="QdUmvHCU_gGnPU_W8vJt-379">
          <mxGeometry width="50" height="50" relative="1" as="geometry">
            <mxPoint x="439" y="312" as="sourcePoint" />
            <mxPoint x="110" y="733" as="targetPoint" />
          </mxGeometry>
        </mxCell>
        <mxCell id="QdUmvHCU_gGnPU_W8vJt-404" value="" style="endArrow=none;html=1;rounded=0;strokeColor=default;align=center;verticalAlign=middle;fontFamily=Helvetica;fontSize=11;fontColor=default;labelBackgroundColor=default;" edge="1" parent="1" source="QdUmvHCU_gGnPU_W8vJt-365" target="QdUmvHCU_gGnPU_W8vJt-379">
          <mxGeometry width="50" height="50" relative="1" as="geometry">
            <mxPoint x="449" y="322" as="sourcePoint" />
            <mxPoint x="120" y="743" as="targetPoint" />
          </mxGeometry>
        </mxCell>
        <mxCell id="QdUmvHCU_gGnPU_W8vJt-405" value="" style="endArrow=none;html=1;rounded=0;strokeColor=default;align=center;verticalAlign=middle;fontFamily=Helvetica;fontSize=11;fontColor=default;labelBackgroundColor=default;" edge="1" parent="1" source="QdUmvHCU_gGnPU_W8vJt-366" target="QdUmvHCU_gGnPU_W8vJt-379">
          <mxGeometry width="50" height="50" relative="1" as="geometry">
            <mxPoint x="393" y="658" as="sourcePoint" />
            <mxPoint x="130" y="753" as="targetPoint" />
          </mxGeometry>
        </mxCell>
        <mxCell id="QdUmvHCU_gGnPU_W8vJt-406" value="" style="endArrow=none;html=1;rounded=0;strokeColor=default;align=center;verticalAlign=middle;fontFamily=Helvetica;fontSize=11;fontColor=default;labelBackgroundColor=default;" edge="1" parent="1" source="QdUmvHCU_gGnPU_W8vJt-375" target="QdUmvHCU_gGnPU_W8vJt-379">
          <mxGeometry width="50" height="50" relative="1" as="geometry">
            <mxPoint x="380" y="755" as="sourcePoint" />
            <mxPoint x="140" y="763" as="targetPoint" />
          </mxGeometry>
        </mxCell>
        <mxCell id="QdUmvHCU_gGnPU_W8vJt-407" value="" style="endArrow=none;html=1;rounded=0;strokeColor=default;align=center;verticalAlign=middle;fontFamily=Helvetica;fontSize=11;fontColor=default;labelBackgroundColor=default;" edge="1" parent="1" source="QdUmvHCU_gGnPU_W8vJt-376" target="QdUmvHCU_gGnPU_W8vJt-379">
          <mxGeometry width="50" height="50" relative="1" as="geometry">
            <mxPoint x="391" y="850" as="sourcePoint" />
            <mxPoint x="150" y="773" as="targetPoint" />
          </mxGeometry>
        </mxCell>
        <mxCell id="QdUmvHCU_gGnPU_W8vJt-408" value="" style="endArrow=none;html=1;rounded=0;strokeColor=default;align=center;verticalAlign=middle;fontFamily=Helvetica;fontSize=11;fontColor=default;labelBackgroundColor=default;" edge="1" parent="1" source="QdUmvHCU_gGnPU_W8vJt-378" target="QdUmvHCU_gGnPU_W8vJt-379">
          <mxGeometry width="50" height="50" relative="1" as="geometry">
            <mxPoint x="409" y="956" as="sourcePoint" />
            <mxPoint x="160" y="783" as="targetPoint" />
          </mxGeometry>
        </mxCell>
        <mxCell id="QdUmvHCU_gGnPU_W8vJt-409" value="" style="endArrow=none;html=1;rounded=0;strokeColor=default;align=center;verticalAlign=middle;fontFamily=Helvetica;fontSize=11;fontColor=default;labelBackgroundColor=default;" edge="1" parent="1" source="QdUmvHCU_gGnPU_W8vJt-377" target="QdUmvHCU_gGnPU_W8vJt-379">
          <mxGeometry width="50" height="50" relative="1" as="geometry">
            <mxPoint x="429" y="1148" as="sourcePoint" />
            <mxPoint x="170" y="793" as="targetPoint" />
          </mxGeometry>
        </mxCell>
        <mxCell id="QdUmvHCU_gGnPU_W8vJt-410" value="" style="endArrow=none;html=1;rounded=0;strokeColor=default;align=center;verticalAlign=middle;fontFamily=Helvetica;fontSize=11;fontColor=default;labelBackgroundColor=default;" edge="1" parent="1" source="QdUmvHCU_gGnPU_W8vJt-373" target="QdUmvHCU_gGnPU_W8vJt-379">
          <mxGeometry width="50" height="50" relative="1" as="geometry">
            <mxPoint x="435" y="1284" as="sourcePoint" />
            <mxPoint x="180" y="803" as="targetPoint" />
          </mxGeometry>
        </mxCell>
        <mxCell id="QdUmvHCU_gGnPU_W8vJt-411" value="" style="endArrow=none;html=1;rounded=0;strokeColor=default;align=center;verticalAlign=middle;fontFamily=Helvetica;fontSize=11;fontColor=default;labelBackgroundColor=default;" edge="1" parent="1" source="QdUmvHCU_gGnPU_W8vJt-374" target="QdUmvHCU_gGnPU_W8vJt-379">
          <mxGeometry width="50" height="50" relative="1" as="geometry">
            <mxPoint x="439" y="1419" as="sourcePoint" />
            <mxPoint x="190" y="813" as="targetPoint" />
          </mxGeometry>
        </mxCell>
        <mxCell id="QdUmvHCU_gGnPU_W8vJt-412" value="" style="endArrow=none;html=1;rounded=0;strokeColor=default;align=center;verticalAlign=middle;fontFamily=Helvetica;fontSize=11;fontColor=default;labelBackgroundColor=default;" edge="1" parent="1" source="QdUmvHCU_gGnPU_W8vJt-364" target="QdUmvHCU_gGnPU_W8vJt-379">
          <mxGeometry width="50" height="50" relative="1" as="geometry">
            <mxPoint x="441" y="1533" as="sourcePoint" />
            <mxPoint x="200" y="823" as="targetPoint" />
          </mxGeometry>
        </mxCell>
        <mxCell id="QdUmvHCU_gGnPU_W8vJt-413" value="&amp;lt;&amp;lt;includes&amp;gt;&amp;gt;" style="endArrow=open;endSize=12;dashed=1;html=1;rounded=0;dashPattern=8 8;strokeColor=default;align=center;verticalAlign=middle;fontFamily=Helvetica;fontSize=11;fontColor=default;labelBackgroundColor=default;" edge="1" parent="1" source="QdUmvHCU_gGnPU_W8vJt-373" target="QdUmvHCU_gGnPU_W8vJt-378">
          <mxGeometry width="160" relative="1" as="geometry">
            <mxPoint x="595" y="1262" as="sourcePoint" />
            <mxPoint x="595" y="1160" as="targetPoint" />
          </mxGeometry>
        </mxCell>
        <mxCell id="QdUmvHCU_gGnPU_W8vJt-414" value="&amp;lt;&amp;lt;includes&amp;gt;&amp;gt;" style="endArrow=open;endSize=12;dashed=1;html=1;rounded=0;dashPattern=8 8;strokeColor=default;align=center;verticalAlign=middle;fontFamily=Helvetica;fontSize=11;fontColor=default;labelBackgroundColor=default;" edge="1" parent="1" source="QdUmvHCU_gGnPU_W8vJt-376" target="QdUmvHCU_gGnPU_W8vJt-378">
          <mxGeometry width="160" relative="1" as="geometry">
            <mxPoint x="665.31" y="919.1500000000001" as="sourcePoint" />
            <mxPoint x="772.31" y="822.15" as="targetPoint" />
          </mxGeometry>
        </mxCell>
        <mxCell id="QdUmvHCU_gGnPU_W8vJt-415" value="&amp;lt;&amp;lt;includes&amp;gt;&amp;gt;" style="endArrow=open;endSize=12;dashed=1;html=1;rounded=0;dashPattern=8 8;strokeColor=default;align=center;verticalAlign=middle;fontFamily=Helvetica;fontSize=11;fontColor=default;labelBackgroundColor=default;" edge="1" parent="1" source="QdUmvHCU_gGnPU_W8vJt-368" target="QdUmvHCU_gGnPU_W8vJt-378">
          <mxGeometry width="160" relative="1" as="geometry">
            <mxPoint x="558.74" y="890.3499999999999" as="sourcePoint" />
            <mxPoint x="638.74" y="1029.35" as="targetPoint" />
          </mxGeometry>
        </mxCell>
        <mxCell id="QdUmvHCU_gGnPU_W8vJt-416" value="&amp;lt;&amp;lt;includes&amp;gt;&amp;gt;" style="endArrow=open;endSize=12;dashed=1;html=1;rounded=0;dashPattern=8 8;strokeColor=default;align=center;verticalAlign=middle;fontFamily=Helvetica;fontSize=11;fontColor=default;labelBackgroundColor=default;" edge="1" parent="1" source="QdUmvHCU_gGnPU_W8vJt-368" target="QdUmvHCU_gGnPU_W8vJt-367">
          <mxGeometry width="160" relative="1" as="geometry">
            <mxPoint x="537.41" y="465.78999999999996" as="sourcePoint" />
            <mxPoint x="729.4099999999999" y="813.79" as="targetPoint" />
          </mxGeometry>
        </mxCell>
        <mxCell id="QdUmvHCU_gGnPU_W8vJt-417" value="&amp;lt;&amp;lt;includes&amp;gt;&amp;gt;" style="endArrow=open;endSize=12;dashed=1;html=1;rounded=0;dashPattern=8 8;strokeColor=default;align=center;verticalAlign=middle;fontFamily=Helvetica;fontSize=11;fontColor=default;labelBackgroundColor=default;" edge="1" parent="1" source="QdUmvHCU_gGnPU_W8vJt-367" target="QdUmvHCU_gGnPU_W8vJt-387">
          <mxGeometry width="160" relative="1" as="geometry">
            <mxPoint x="446" y="488" as="sourcePoint" />
            <mxPoint x="443" y="453" as="targetPoint" />
          </mxGeometry>
        </mxCell>
        <mxCell id="QdUmvHCU_gGnPU_W8vJt-418" style="rounded=0;orthogonalLoop=1;jettySize=auto;html=1;endArrow=block;endFill=0;" edge="1" parent="1" source="QdUmvHCU_gGnPU_W8vJt-394" target="QdUmvHCU_gGnPU_W8vJt-395">
          <mxGeometry relative="1" as="geometry">
            <mxPoint x="628" y="523" as="sourcePoint" />
            <mxPoint x="707" y="407" as="targetPoint" />
          </mxGeometry>
        </mxCell>
        <mxCell id="QdUmvHCU_gGnPU_W8vJt-419" style="rounded=0;orthogonalLoop=1;jettySize=auto;html=1;endArrow=block;endFill=0;" edge="1" parent="1" source="QdUmvHCU_gGnPU_W8vJt-393" target="QdUmvHCU_gGnPU_W8vJt-395">
          <mxGeometry relative="1" as="geometry">
            <mxPoint x="617" y="38" as="sourcePoint" />
            <mxPoint x="718" y="339" as="targetPoint" />
          </mxGeometry>
        </mxCell>
        <mxCell id="QdUmvHCU_gGnPU_W8vJt-420" style="rounded=0;orthogonalLoop=1;jettySize=auto;html=1;endArrow=block;endFill=0;" edge="1" parent="1" source="QdUmvHCU_gGnPU_W8vJt-394" target="QdUmvHCU_gGnPU_W8vJt-396">
          <mxGeometry relative="1" as="geometry">
            <mxPoint x="768" y="100" as="sourcePoint" />
            <mxPoint x="654" y="48" as="targetPoint" />
          </mxGeometry>
        </mxCell>
        <mxCell id="QdUmvHCU_gGnPU_W8vJt-421" style="rounded=0;orthogonalLoop=1;jettySize=auto;html=1;endArrow=block;endFill=0;" edge="1" parent="1" source="QdUmvHCU_gGnPU_W8vJt-392" target="QdUmvHCU_gGnPU_W8vJt-396">
          <mxGeometry relative="1" as="geometry">
            <mxPoint x="637" y="58" as="sourcePoint" />
            <mxPoint x="738" y="359" as="targetPoint" />
          </mxGeometry>
        </mxCell>
        <mxCell id="QdUmvHCU_gGnPU_W8vJt-422" style="rounded=0;orthogonalLoop=1;jettySize=auto;html=1;endArrow=block;endFill=0;" edge="1" parent="1" source="QdUmvHCU_gGnPU_W8vJt-393" target="QdUmvHCU_gGnPU_W8vJt-396">
          <mxGeometry relative="1" as="geometry">
            <mxPoint x="647" y="68" as="sourcePoint" />
            <mxPoint x="748" y="369" as="targetPoint" />
          </mxGeometry>
        </mxCell>
        <mxCell id="QdUmvHCU_gGnPU_W8vJt-423" value="Use Template" style="ellipse;whiteSpace=wrap;html=1;" vertex="1" parent="1">
          <mxGeometry x="480.25" y="1437" width="140" height="70" as="geometry" />
        </mxCell>
        <mxCell id="QdUmvHCU_gGnPU_W8vJt-424" value="Modify Ads" style="ellipse;whiteSpace=wrap;html=1;" vertex="1" parent="1">
          <mxGeometry x="402.75" y="1292" width="140" height="70" as="geometry" />
        </mxCell>
        <mxCell id="QdUmvHCU_gGnPU_W8vJt-425" value="Create Ads" style="ellipse;whiteSpace=wrap;html=1;" vertex="1" parent="1">
          <mxGeometry x="416.75" y="1573" width="140" height="70" as="geometry" />
        </mxCell>
        <mxCell id="QdUmvHCU_gGnPU_W8vJt-426" style="rounded=0;orthogonalLoop=1;jettySize=auto;html=1;strokeColor=default;align=center;verticalAlign=middle;fontFamily=Helvetica;fontSize=11;fontColor=default;labelBackgroundColor=default;endArrow=blockThin;endFill=0;" edge="1" parent="1" source="QdUmvHCU_gGnPU_W8vJt-428" target="QdUmvHCU_gGnPU_W8vJt-379">
          <mxGeometry relative="1" as="geometry">
            <mxPoint x="267.75" y="1527" as="targetPoint" />
          </mxGeometry>
        </mxCell>
        <mxCell id="QdUmvHCU_gGnPU_W8vJt-427" style="rounded=0;orthogonalLoop=1;jettySize=auto;html=1;strokeColor=default;align=center;verticalAlign=middle;fontFamily=Helvetica;fontSize=11;fontColor=default;labelBackgroundColor=default;endArrow=none;endFill=0;" edge="1" parent="1" source="QdUmvHCU_gGnPU_W8vJt-428" target="QdUmvHCU_gGnPU_W8vJt-423">
          <mxGeometry relative="1" as="geometry" />
        </mxCell>
        <mxCell id="QdUmvHCU_gGnPU_W8vJt-428" value="Merchant" style="shape=umlActor;verticalLabelPosition=bottom;verticalAlign=top;html=1;outlineConnect=0;" vertex="1" parent="1">
          <mxGeometry x="66" y="1266" width="30" height="60" as="geometry" />
        </mxCell>
        <mxCell id="QdUmvHCU_gGnPU_W8vJt-430" style="rounded=0;orthogonalLoop=1;jettySize=auto;html=1;strokeColor=default;align=center;verticalAlign=middle;fontFamily=Helvetica;fontSize=11;fontColor=default;labelBackgroundColor=default;endArrow=none;endFill=0;" edge="1" parent="1" source="QdUmvHCU_gGnPU_W8vJt-428" target="QdUmvHCU_gGnPU_W8vJt-425">
          <mxGeometry relative="1" as="geometry">
            <mxPoint x="363.75" y="1535" as="sourcePoint" />
            <mxPoint x="450.75" y="1525" as="targetPoint" />
          </mxGeometry>
        </mxCell>
        <mxCell id="QdUmvHCU_gGnPU_W8vJt-431" style="rounded=0;orthogonalLoop=1;jettySize=auto;html=1;strokeColor=default;align=center;verticalAlign=middle;fontFamily=Helvetica;fontSize=11;fontColor=default;labelBackgroundColor=default;endArrow=none;endFill=0;" edge="1" parent="1" source="QdUmvHCU_gGnPU_W8vJt-428" target="QdUmvHCU_gGnPU_W8vJt-424">
          <mxGeometry relative="1" as="geometry">
            <mxPoint x="383.75" y="1555" as="sourcePoint" />
            <mxPoint x="485.75" y="1458" as="targetPoint" />
          </mxGeometry>
        </mxCell>
      </root>
    </mxGraphModel>
  </diagram>
</mxfile>
